<mxfile host="Electron" agent="Mozilla/5.0 (Macintosh; Intel Mac OS X 10_15_7) AppleWebKit/537.36 (KHTML, like Gecko) draw.io/24.7.17 Chrome/128.0.6613.36 Electron/32.0.1 Safari/537.36" version="24.7.17">
  <diagram name="Страница — 1" id="CBC1rgHHHILlYHqByHYL">
    <mxGraphModel dx="1124" dy="842" grid="1" gridSize="10" guides="1" tooltips="1" connect="1" arrows="1" fold="1" page="1" pageScale="1" pageWidth="1100" pageHeight="850" background="#ffffff" math="0" shadow="0">
      <root>
        <mxCell id="0" />
        <mxCell id="1" parent="0" />
        <mxCell id="UtrABaLbU96Mtq_oK4z2-115" value="" style="rounded=0;whiteSpace=wrap;html=1;" parent="1" vertex="1">
          <mxGeometry x="520" y="330" width="370" height="130" as="geometry" />
        </mxCell>
        <mxCell id="NzfTSA1hqwJ1rz7dSjbP-58" value="" style="rounded=1;whiteSpace=wrap;html=1;" parent="1" vertex="1">
          <mxGeometry x="602.5" y="365" width="207.5" height="60" as="geometry" />
        </mxCell>
        <mxCell id="UtrABaLbU96Mtq_oK4z2-65" value="" style="group" parent="1" vertex="1" connectable="0">
          <mxGeometry x="70" y="80" width="370" height="210" as="geometry" />
        </mxCell>
        <mxCell id="UtrABaLbU96Mtq_oK4z2-1" value="" style="rounded=0;whiteSpace=wrap;html=1;" parent="UtrABaLbU96Mtq_oK4z2-65" vertex="1">
          <mxGeometry width="370" height="210" as="geometry" />
        </mxCell>
        <mxCell id="UtrABaLbU96Mtq_oK4z2-2" value="Logo" style="ellipse;whiteSpace=wrap;html=1;aspect=fixed;" parent="UtrABaLbU96Mtq_oK4z2-65" vertex="1">
          <mxGeometry x="10" y="10" width="40" height="40" as="geometry" />
        </mxCell>
        <mxCell id="UtrABaLbU96Mtq_oK4z2-3" value="&lt;font style=&quot;font-size: 9px;&quot;&gt;Дашборд&lt;/font&gt;" style="rounded=1;whiteSpace=wrap;html=1;" parent="UtrABaLbU96Mtq_oK4z2-65" vertex="1">
          <mxGeometry x="60" y="20" width="60" height="20" as="geometry" />
        </mxCell>
        <mxCell id="UtrABaLbU96Mtq_oK4z2-4" value="&lt;font style=&quot;font-size: 9px;&quot;&gt;Успеваемость&lt;/font&gt;" style="rounded=1;whiteSpace=wrap;html=1;" parent="UtrABaLbU96Mtq_oK4z2-65" vertex="1">
          <mxGeometry x="130" y="20" width="60" height="20" as="geometry" />
        </mxCell>
        <mxCell id="UtrABaLbU96Mtq_oK4z2-5" value="&lt;font style=&quot;font-size: 9px;&quot;&gt;События&lt;/font&gt;" style="rounded=1;whiteSpace=wrap;html=1;" parent="UtrABaLbU96Mtq_oK4z2-65" vertex="1">
          <mxGeometry x="200" y="20" width="60" height="20" as="geometry" />
        </mxCell>
        <mxCell id="UtrABaLbU96Mtq_oK4z2-6" value="&lt;font style=&quot;font-size: 9px;&quot;&gt;Оплата&lt;/font&gt;" style="rounded=1;whiteSpace=wrap;html=1;" parent="UtrABaLbU96Mtq_oK4z2-65" vertex="1">
          <mxGeometry x="270" y="20" width="60" height="20" as="geometry" />
        </mxCell>
        <mxCell id="UtrABaLbU96Mtq_oK4z2-7" value="" style="shape=actor;whiteSpace=wrap;html=1;" parent="UtrABaLbU96Mtq_oK4z2-65" vertex="1">
          <mxGeometry x="340" y="20" width="20" height="20" as="geometry" />
        </mxCell>
        <mxCell id="UtrABaLbU96Mtq_oK4z2-9" value="&lt;span style=&quot;font-weight: normal;&quot;&gt;&lt;font style=&quot;font-size: 9px;&quot;&gt;Средняя успеваемость&lt;/font&gt;&lt;/span&gt;" style="swimlane;whiteSpace=wrap;html=1;align=right;" parent="UtrABaLbU96Mtq_oK4z2-65" vertex="1">
          <mxGeometry x="10" y="55" width="120" height="55" as="geometry" />
        </mxCell>
        <mxCell id="UtrABaLbU96Mtq_oK4z2-10" value=" Ближайшие ивенты" style="shape=table;startSize=30;container=1;collapsible=0;childLayout=tableLayout;fixedRows=1;rowLines=0;fontStyle=0;strokeColor=default;fontSize=10;align=left;" parent="UtrABaLbU96Mtq_oK4z2-65" vertex="1">
          <mxGeometry x="260" y="120" width="100" height="80" as="geometry" />
        </mxCell>
        <mxCell id="UtrABaLbU96Mtq_oK4z2-11" value="" style="shape=tableRow;horizontal=0;startSize=0;swimlaneHead=0;swimlaneBody=0;top=0;left=0;bottom=0;right=0;collapsible=0;dropTarget=0;fillColor=none;points=[[0,0.5],[1,0.5]];portConstraint=eastwest;strokeColor=inherit;fontSize=16;" parent="UtrABaLbU96Mtq_oK4z2-10" vertex="1">
          <mxGeometry y="30" width="100" height="20" as="geometry" />
        </mxCell>
        <mxCell id="UtrABaLbU96Mtq_oK4z2-12" value="&lt;font style=&quot;font-size: 8px;&quot;&gt;1&lt;/font&gt;" style="shape=partialRectangle;html=1;whiteSpace=wrap;connectable=0;fillColor=none;top=0;left=0;bottom=0;right=0;overflow=hidden;pointerEvents=1;strokeColor=inherit;fontSize=16;" parent="UtrABaLbU96Mtq_oK4z2-11" vertex="1">
          <mxGeometry width="22" height="20" as="geometry">
            <mxRectangle width="22" height="20" as="alternateBounds" />
          </mxGeometry>
        </mxCell>
        <mxCell id="UtrABaLbU96Mtq_oK4z2-13" value="" style="shape=partialRectangle;html=1;whiteSpace=wrap;connectable=0;fillColor=none;top=0;left=0;bottom=0;right=0;align=left;spacingLeft=6;overflow=hidden;strokeColor=inherit;fontSize=16;" parent="UtrABaLbU96Mtq_oK4z2-11" vertex="1">
          <mxGeometry x="22" width="78" height="20" as="geometry">
            <mxRectangle width="78" height="20" as="alternateBounds" />
          </mxGeometry>
        </mxCell>
        <mxCell id="UtrABaLbU96Mtq_oK4z2-14" value="" style="shape=tableRow;horizontal=0;startSize=0;swimlaneHead=0;swimlaneBody=0;top=0;left=0;bottom=0;right=0;collapsible=0;dropTarget=0;fillColor=none;points=[[0,0.5],[1,0.5]];portConstraint=eastwest;strokeColor=inherit;fontSize=16;" parent="UtrABaLbU96Mtq_oK4z2-10" vertex="1">
          <mxGeometry y="50" width="100" height="30" as="geometry" />
        </mxCell>
        <mxCell id="UtrABaLbU96Mtq_oK4z2-15" value="&lt;font style=&quot;font-size: 8px;&quot;&gt;2&lt;/font&gt;" style="shape=partialRectangle;html=1;whiteSpace=wrap;connectable=0;fillColor=none;top=0;left=0;bottom=0;right=0;overflow=hidden;strokeColor=inherit;fontSize=16;" parent="UtrABaLbU96Mtq_oK4z2-14" vertex="1">
          <mxGeometry width="22" height="30" as="geometry">
            <mxRectangle width="22" height="30" as="alternateBounds" />
          </mxGeometry>
        </mxCell>
        <mxCell id="UtrABaLbU96Mtq_oK4z2-16" value="" style="shape=partialRectangle;html=1;whiteSpace=wrap;connectable=0;fillColor=none;top=0;left=0;bottom=0;right=0;align=left;spacingLeft=6;overflow=hidden;strokeColor=inherit;fontSize=16;" parent="UtrABaLbU96Mtq_oK4z2-14" vertex="1">
          <mxGeometry x="22" width="78" height="30" as="geometry">
            <mxRectangle width="78" height="30" as="alternateBounds" />
          </mxGeometry>
        </mxCell>
        <mxCell id="UtrABaLbU96Mtq_oK4z2-24" value="Расписание сегодня" style="shape=table;childLayout=tableLayout;startSize=30;collapsible=0;recursiveResize=0;expand=0;fontSize=10;" parent="UtrABaLbU96Mtq_oK4z2-65" vertex="1">
          <mxGeometry x="10" y="120" width="120" height="78" as="geometry" />
        </mxCell>
        <mxCell id="UtrABaLbU96Mtq_oK4z2-25" value="" style="shape=tableRow;horizontal=0;swimlaneHead=0;swimlaneBody=0;top=0;left=0;strokeColor=inherit;bottom=0;right=0;dropTarget=0;fontStyle=0;fillColor=none;points=[[0,0.5],[1,0.5]];portConstraint=eastwest;startSize=30;collapsible=0;recursiveResize=0;expand=0;fontSize=16;" parent="UtrABaLbU96Mtq_oK4z2-24" vertex="1">
          <mxGeometry y="30" width="120" height="20" as="geometry" />
        </mxCell>
        <mxCell id="UtrABaLbU96Mtq_oK4z2-26" value="" style="swimlane;swimlaneHead=0;swimlaneBody=0;fontStyle=0;strokeColor=inherit;connectable=0;fillColor=none;startSize=40;collapsible=0;recursiveResize=0;expand=0;fontSize=16;" parent="UtrABaLbU96Mtq_oK4z2-25" vertex="1">
          <mxGeometry x="30" width="36" height="20" as="geometry">
            <mxRectangle width="36" height="20" as="alternateBounds" />
          </mxGeometry>
        </mxCell>
        <mxCell id="UtrABaLbU96Mtq_oK4z2-27" value="" style="swimlane;swimlaneHead=0;swimlaneBody=0;fontStyle=0;strokeColor=inherit;connectable=0;fillColor=none;startSize=40;collapsible=0;recursiveResize=0;expand=0;fontSize=16;" parent="UtrABaLbU96Mtq_oK4z2-25" vertex="1">
          <mxGeometry x="66" width="27" height="20" as="geometry">
            <mxRectangle width="27" height="20" as="alternateBounds" />
          </mxGeometry>
        </mxCell>
        <mxCell id="UtrABaLbU96Mtq_oK4z2-28" value="" style="swimlane;swimlaneHead=0;swimlaneBody=0;fontStyle=0;strokeColor=inherit;connectable=0;fillColor=none;startSize=40;collapsible=0;recursiveResize=0;expand=0;fontSize=16;" parent="UtrABaLbU96Mtq_oK4z2-25" vertex="1">
          <mxGeometry x="93" width="27" height="20" as="geometry">
            <mxRectangle width="27" height="20" as="alternateBounds" />
          </mxGeometry>
        </mxCell>
        <mxCell id="UtrABaLbU96Mtq_oK4z2-29" value="" style="shape=tableRow;horizontal=0;swimlaneHead=0;swimlaneBody=0;top=0;left=0;strokeColor=inherit;bottom=0;right=0;dropTarget=0;fontStyle=0;fillColor=none;points=[[0,0.5],[1,0.5]];portConstraint=eastwest;startSize=30;collapsible=0;recursiveResize=0;expand=0;fontSize=16;" parent="UtrABaLbU96Mtq_oK4z2-24" vertex="1">
          <mxGeometry y="50" width="120" height="15" as="geometry" />
        </mxCell>
        <mxCell id="UtrABaLbU96Mtq_oK4z2-30" value="" style="swimlane;swimlaneHead=0;swimlaneBody=0;fontStyle=0;connectable=0;strokeColor=inherit;fillColor=none;startSize=0;collapsible=0;recursiveResize=0;expand=0;fontSize=16;" parent="UtrABaLbU96Mtq_oK4z2-29" vertex="1">
          <mxGeometry x="30" width="36" height="15" as="geometry">
            <mxRectangle width="36" height="15" as="alternateBounds" />
          </mxGeometry>
        </mxCell>
        <mxCell id="UtrABaLbU96Mtq_oK4z2-31" value="" style="swimlane;swimlaneHead=0;swimlaneBody=0;fontStyle=0;connectable=0;strokeColor=inherit;fillColor=none;startSize=0;collapsible=0;recursiveResize=0;expand=0;fontSize=16;" parent="UtrABaLbU96Mtq_oK4z2-29" vertex="1">
          <mxGeometry x="66" width="27" height="15" as="geometry">
            <mxRectangle width="27" height="15" as="alternateBounds" />
          </mxGeometry>
        </mxCell>
        <mxCell id="UtrABaLbU96Mtq_oK4z2-32" value="" style="swimlane;swimlaneHead=0;swimlaneBody=0;fontStyle=0;connectable=0;strokeColor=inherit;fillColor=none;startSize=0;collapsible=0;recursiveResize=0;expand=0;fontSize=16;" parent="UtrABaLbU96Mtq_oK4z2-29" vertex="1">
          <mxGeometry x="93" width="27" height="15" as="geometry">
            <mxRectangle width="27" height="15" as="alternateBounds" />
          </mxGeometry>
        </mxCell>
        <mxCell id="UtrABaLbU96Mtq_oK4z2-33" value="" style="shape=tableRow;horizontal=0;swimlaneHead=0;swimlaneBody=0;top=0;left=0;strokeColor=inherit;bottom=0;right=0;dropTarget=0;fontStyle=0;fillColor=none;points=[[0,0.5],[1,0.5]];portConstraint=eastwest;startSize=30;collapsible=0;recursiveResize=0;expand=0;fontSize=16;" parent="UtrABaLbU96Mtq_oK4z2-24" vertex="1">
          <mxGeometry y="65" width="120" height="13" as="geometry" />
        </mxCell>
        <mxCell id="UtrABaLbU96Mtq_oK4z2-34" value="" style="swimlane;swimlaneHead=0;swimlaneBody=0;fontStyle=0;connectable=0;strokeColor=inherit;fillColor=none;startSize=0;collapsible=0;recursiveResize=0;expand=0;fontSize=16;" parent="UtrABaLbU96Mtq_oK4z2-33" vertex="1">
          <mxGeometry x="30" width="36" height="13" as="geometry">
            <mxRectangle width="36" height="13" as="alternateBounds" />
          </mxGeometry>
        </mxCell>
        <mxCell id="UtrABaLbU96Mtq_oK4z2-35" value="" style="swimlane;swimlaneHead=0;swimlaneBody=0;fontStyle=0;connectable=0;strokeColor=inherit;fillColor=none;startSize=0;collapsible=0;recursiveResize=0;expand=0;fontSize=16;" parent="UtrABaLbU96Mtq_oK4z2-33" vertex="1">
          <mxGeometry x="66" width="27" height="13" as="geometry">
            <mxRectangle width="27" height="13" as="alternateBounds" />
          </mxGeometry>
        </mxCell>
        <mxCell id="UtrABaLbU96Mtq_oK4z2-36" value="" style="swimlane;swimlaneHead=0;swimlaneBody=0;fontStyle=0;connectable=0;strokeColor=inherit;fillColor=none;startSize=0;collapsible=0;recursiveResize=0;expand=0;fontSize=16;" parent="UtrABaLbU96Mtq_oK4z2-33" vertex="1">
          <mxGeometry x="93" width="27" height="13" as="geometry">
            <mxRectangle width="27" height="13" as="alternateBounds" />
          </mxGeometry>
        </mxCell>
        <mxCell id="UtrABaLbU96Mtq_oK4z2-37" value="" style="childLayout=tableLayout;recursiveResize=0;shadow=0;fillColor=none;" parent="UtrABaLbU96Mtq_oK4z2-65" vertex="1">
          <mxGeometry x="140" y="120" width="110" height="73" as="geometry" />
        </mxCell>
        <mxCell id="UtrABaLbU96Mtq_oK4z2-38" value="" style="shape=tableRow;horizontal=0;startSize=0;swimlaneHead=0;swimlaneBody=0;top=0;left=0;bottom=0;right=0;dropTarget=0;collapsible=0;recursiveResize=0;expand=0;fontStyle=0;fillColor=none;strokeColor=inherit;" parent="UtrABaLbU96Mtq_oK4z2-37" vertex="1">
          <mxGeometry width="110" height="20" as="geometry" />
        </mxCell>
        <mxCell id="UtrABaLbU96Mtq_oK4z2-39" value="&lt;font style=&quot;font-size: 7px;&quot;&gt;Тест&lt;/font&gt;" style="connectable=0;recursiveResize=0;strokeColor=inherit;fillColor=none;align=center;whiteSpace=wrap;html=1;" parent="UtrABaLbU96Mtq_oK4z2-38" vertex="1">
          <mxGeometry width="36" height="20" as="geometry">
            <mxRectangle width="36" height="20" as="alternateBounds" />
          </mxGeometry>
        </mxCell>
        <mxCell id="UtrABaLbU96Mtq_oK4z2-40" value="" style="connectable=0;recursiveResize=0;strokeColor=inherit;fillColor=none;align=center;whiteSpace=wrap;html=1;" parent="UtrABaLbU96Mtq_oK4z2-38" vertex="1">
          <mxGeometry x="36" width="38" height="20" as="geometry">
            <mxRectangle width="38" height="20" as="alternateBounds" />
          </mxGeometry>
        </mxCell>
        <mxCell id="UtrABaLbU96Mtq_oK4z2-41" value="" style="connectable=0;recursiveResize=0;strokeColor=inherit;fillColor=none;align=center;whiteSpace=wrap;html=1;" parent="UtrABaLbU96Mtq_oK4z2-38" vertex="1">
          <mxGeometry x="74" width="36" height="20" as="geometry">
            <mxRectangle width="36" height="20" as="alternateBounds" />
          </mxGeometry>
        </mxCell>
        <mxCell id="UtrABaLbU96Mtq_oK4z2-42" style="shape=tableRow;horizontal=0;startSize=0;swimlaneHead=0;swimlaneBody=0;top=0;left=0;bottom=0;right=0;dropTarget=0;collapsible=0;recursiveResize=0;expand=0;fontStyle=0;fillColor=none;strokeColor=inherit;" parent="UtrABaLbU96Mtq_oK4z2-37" vertex="1">
          <mxGeometry y="20" width="110" height="26" as="geometry" />
        </mxCell>
        <mxCell id="UtrABaLbU96Mtq_oK4z2-43" value="" style="connectable=0;recursiveResize=0;strokeColor=inherit;fillColor=none;align=center;whiteSpace=wrap;html=1;" parent="UtrABaLbU96Mtq_oK4z2-42" vertex="1">
          <mxGeometry width="36" height="26" as="geometry">
            <mxRectangle width="36" height="26" as="alternateBounds" />
          </mxGeometry>
        </mxCell>
        <mxCell id="UtrABaLbU96Mtq_oK4z2-44" value="&lt;font style=&quot;font-size: 7px;&quot;&gt;Контроль&lt;/font&gt;" style="connectable=0;recursiveResize=0;strokeColor=inherit;fillColor=none;align=center;whiteSpace=wrap;html=1;" parent="UtrABaLbU96Mtq_oK4z2-42" vertex="1">
          <mxGeometry x="36" width="38" height="26" as="geometry">
            <mxRectangle width="38" height="26" as="alternateBounds" />
          </mxGeometry>
        </mxCell>
        <mxCell id="UtrABaLbU96Mtq_oK4z2-45" value="" style="connectable=0;recursiveResize=0;strokeColor=inherit;fillColor=none;align=center;whiteSpace=wrap;html=1;" parent="UtrABaLbU96Mtq_oK4z2-42" vertex="1">
          <mxGeometry x="74" width="36" height="26" as="geometry">
            <mxRectangle width="36" height="26" as="alternateBounds" />
          </mxGeometry>
        </mxCell>
        <mxCell id="UtrABaLbU96Mtq_oK4z2-46" style="shape=tableRow;horizontal=0;startSize=0;swimlaneHead=0;swimlaneBody=0;top=0;left=0;bottom=0;right=0;dropTarget=0;collapsible=0;recursiveResize=0;expand=0;fontStyle=0;fillColor=none;strokeColor=inherit;" parent="UtrABaLbU96Mtq_oK4z2-37" vertex="1">
          <mxGeometry y="46" width="110" height="27" as="geometry" />
        </mxCell>
        <mxCell id="UtrABaLbU96Mtq_oK4z2-47" value="" style="connectable=0;recursiveResize=0;strokeColor=inherit;fillColor=none;align=center;whiteSpace=wrap;html=1;" parent="UtrABaLbU96Mtq_oK4z2-46" vertex="1">
          <mxGeometry width="36" height="27" as="geometry">
            <mxRectangle width="36" height="27" as="alternateBounds" />
          </mxGeometry>
        </mxCell>
        <mxCell id="UtrABaLbU96Mtq_oK4z2-48" value="&lt;font style=&quot;font-size: 7px;&quot;&gt;Экзамен&lt;/font&gt;" style="connectable=0;recursiveResize=0;strokeColor=inherit;fillColor=none;align=center;whiteSpace=wrap;html=1;" parent="UtrABaLbU96Mtq_oK4z2-46" vertex="1">
          <mxGeometry x="36" width="38" height="27" as="geometry">
            <mxRectangle width="38" height="27" as="alternateBounds" />
          </mxGeometry>
        </mxCell>
        <mxCell id="UtrABaLbU96Mtq_oK4z2-49" value="" style="connectable=0;recursiveResize=0;strokeColor=inherit;fillColor=none;align=center;whiteSpace=wrap;html=1;" parent="UtrABaLbU96Mtq_oK4z2-46" vertex="1">
          <mxGeometry x="74" width="36" height="27" as="geometry">
            <mxRectangle width="36" height="27" as="alternateBounds" />
          </mxGeometry>
        </mxCell>
        <mxCell id="UtrABaLbU96Mtq_oK4z2-50" value="Контакты кураторов" style="swimlane;fontStyle=0;fontSize=8;align=right;" parent="UtrABaLbU96Mtq_oK4z2-65" vertex="1">
          <mxGeometry x="260" y="55" width="100" height="55" as="geometry" />
        </mxCell>
        <mxCell id="UtrABaLbU96Mtq_oK4z2-51" value="&lt;font style=&quot;font-size: 8px;&quot;&gt;Мои задачи&lt;/font&gt;" style="swimlane;fontStyle=0;childLayout=stackLayout;horizontal=1;startSize=30;horizontalStack=0;resizeParent=1;resizeParentMax=0;resizeLast=0;collapsible=1;marginBottom=0;whiteSpace=wrap;html=1;strokeColor=#ff0000;" parent="UtrABaLbU96Mtq_oK4z2-65" vertex="1">
          <mxGeometry x="140" y="55" width="110" height="50" as="geometry" />
        </mxCell>
        <mxCell id="UtrABaLbU96Mtq_oK4z2-52" value="&lt;font style=&quot;font-size: 7px;&quot;&gt;Дисциплина + задача кратко&lt;/font&gt;" style="text;strokeColor=none;fillColor=none;align=left;verticalAlign=middle;spacingLeft=4;spacingRight=4;overflow=hidden;points=[[0,0.5],[1,0.5]];portConstraint=eastwest;rotatable=0;whiteSpace=wrap;html=1;" parent="UtrABaLbU96Mtq_oK4z2-51" vertex="1">
          <mxGeometry y="30" width="110" height="20" as="geometry" />
        </mxCell>
        <mxCell id="UtrABaLbU96Mtq_oK4z2-67" value="" style="endArrow=none;dashed=1;html=1;rounded=0;entryX=1;entryY=0.25;entryDx=0;entryDy=0;" parent="UtrABaLbU96Mtq_oK4z2-65" target="UtrABaLbU96Mtq_oK4z2-1" edge="1">
          <mxGeometry width="50" height="50" relative="1" as="geometry">
            <mxPoint x="0.37" y="51.77" as="sourcePoint" />
            <mxPoint x="370" y="55.00000000000002" as="targetPoint" />
          </mxGeometry>
        </mxCell>
        <mxCell id="b3dP0lmcflKQwwTsM0hy-11" value="1" style="text;strokeColor=none;fillColor=none;html=1;fontSize=24;fontStyle=1;verticalAlign=middle;align=center;" vertex="1" parent="UtrABaLbU96Mtq_oK4z2-65">
          <mxGeometry x="-40" y="-10" width="100" height="40" as="geometry" />
        </mxCell>
        <mxCell id="UtrABaLbU96Mtq_oK4z2-66" value="&lt;font style=&quot;font-size: 9px;&quot;&gt;&lt;br&gt;Как пользователь образовательного портала, я хочу видеть список своих текущих задач к выполнению на главном экране веб-сайта, чтобы быстро ориентироваться в своих обязательствах и эффективно планировать учебное время.&lt;/font&gt;" style="text;whiteSpace=wrap;html=1;" parent="1" vertex="1">
          <mxGeometry x="70" y="10" width="380" height="40" as="geometry" />
        </mxCell>
        <mxCell id="UtrABaLbU96Mtq_oK4z2-69" value="" style="rounded=0;whiteSpace=wrap;html=1;" parent="1" vertex="1">
          <mxGeometry x="520" y="80" width="370" height="210" as="geometry" />
        </mxCell>
        <mxCell id="UtrABaLbU96Mtq_oK4z2-70" value="&lt;div style=&quot;&quot;&gt;&lt;span style=&quot;font-size: 7px; background-color: initial;&quot;&gt;на главную&lt;/span&gt;&lt;/div&gt;" style="shape=singleArrow;direction=west;whiteSpace=wrap;html=1;align=center;arrowWidth=0.6428571428571374;arrowSize=0.18571428571428408;" parent="1" vertex="1">
          <mxGeometry x="530" y="90" width="50" height="20" as="geometry" />
        </mxCell>
        <mxCell id="UtrABaLbU96Mtq_oK4z2-84" value="Мои задачи" style="shape=table;startSize=30;container=1;collapsible=1;childLayout=tableLayout;fixedRows=1;rowLines=0;fontStyle=1;align=center;resizeLast=1;html=1;whiteSpace=wrap;" parent="1" vertex="1">
          <mxGeometry x="590" y="90" width="290" height="150" as="geometry" />
        </mxCell>
        <mxCell id="UtrABaLbU96Mtq_oK4z2-85" value="" style="shape=tableRow;horizontal=0;startSize=0;swimlaneHead=0;swimlaneBody=0;fillColor=none;collapsible=0;dropTarget=0;points=[[0,0.5],[1,0.5]];portConstraint=eastwest;top=0;left=0;right=0;bottom=0;html=1;" parent="UtrABaLbU96Mtq_oK4z2-84" vertex="1">
          <mxGeometry y="30" width="290" height="30" as="geometry" />
        </mxCell>
        <mxCell id="UtrABaLbU96Mtq_oK4z2-86" value="&lt;font style=&quot;font-size: 8px;&quot;&gt;Дисциплина 1&lt;/font&gt;" style="shape=partialRectangle;connectable=0;fillColor=none;top=0;left=0;bottom=0;right=0;fontStyle=1;overflow=hidden;html=1;whiteSpace=wrap;align=center;" parent="UtrABaLbU96Mtq_oK4z2-85" vertex="1">
          <mxGeometry width="60" height="30" as="geometry">
            <mxRectangle width="60" height="30" as="alternateBounds" />
          </mxGeometry>
        </mxCell>
        <mxCell id="UtrABaLbU96Mtq_oK4z2-87" value="&lt;p&gt;&lt;br&gt;&lt;/p&gt;" style="shape=partialRectangle;connectable=0;fillColor=none;top=0;left=0;bottom=0;right=0;align=left;spacingLeft=6;fontStyle=5;overflow=hidden;html=1;whiteSpace=wrap;" parent="UtrABaLbU96Mtq_oK4z2-85" vertex="1">
          <mxGeometry x="60" width="230" height="30" as="geometry">
            <mxRectangle width="230" height="30" as="alternateBounds" />
          </mxGeometry>
        </mxCell>
        <mxCell id="UtrABaLbU96Mtq_oK4z2-88" value="" style="shape=tableRow;horizontal=0;startSize=0;swimlaneHead=0;swimlaneBody=0;fillColor=none;collapsible=0;dropTarget=0;points=[[0,0.5],[1,0.5]];portConstraint=eastwest;top=0;left=0;right=0;bottom=1;html=1;" parent="UtrABaLbU96Mtq_oK4z2-84" vertex="1">
          <mxGeometry y="60" width="290" height="30" as="geometry" />
        </mxCell>
        <mxCell id="UtrABaLbU96Mtq_oK4z2-89" value="" style="shape=partialRectangle;connectable=0;fillColor=none;top=0;left=0;bottom=0;right=0;fontStyle=1;overflow=hidden;html=1;whiteSpace=wrap;" parent="UtrABaLbU96Mtq_oK4z2-88" vertex="1">
          <mxGeometry width="60" height="30" as="geometry">
            <mxRectangle width="60" height="30" as="alternateBounds" />
          </mxGeometry>
        </mxCell>
        <mxCell id="UtrABaLbU96Mtq_oK4z2-90" value="" style="shape=partialRectangle;connectable=0;fillColor=none;top=0;left=0;bottom=0;right=0;align=left;spacingLeft=6;fontStyle=5;overflow=hidden;html=1;whiteSpace=wrap;" parent="UtrABaLbU96Mtq_oK4z2-88" vertex="1">
          <mxGeometry x="60" width="230" height="30" as="geometry">
            <mxRectangle width="230" height="30" as="alternateBounds" />
          </mxGeometry>
        </mxCell>
        <mxCell id="UtrABaLbU96Mtq_oK4z2-91" value="" style="shape=tableRow;horizontal=0;startSize=0;swimlaneHead=0;swimlaneBody=0;fillColor=none;collapsible=0;dropTarget=0;points=[[0,0.5],[1,0.5]];portConstraint=eastwest;top=0;left=0;right=0;bottom=0;html=1;" parent="UtrABaLbU96Mtq_oK4z2-84" vertex="1">
          <mxGeometry y="90" width="290" height="30" as="geometry" />
        </mxCell>
        <mxCell id="UtrABaLbU96Mtq_oK4z2-92" value="" style="shape=partialRectangle;connectable=0;fillColor=none;top=0;left=0;bottom=0;right=0;editable=1;overflow=hidden;html=1;whiteSpace=wrap;" parent="UtrABaLbU96Mtq_oK4z2-91" vertex="1">
          <mxGeometry width="60" height="30" as="geometry">
            <mxRectangle width="60" height="30" as="alternateBounds" />
          </mxGeometry>
        </mxCell>
        <mxCell id="UtrABaLbU96Mtq_oK4z2-93" value="" style="shape=partialRectangle;connectable=0;fillColor=none;top=0;left=0;bottom=0;right=0;align=left;spacingLeft=6;overflow=hidden;html=1;whiteSpace=wrap;" parent="UtrABaLbU96Mtq_oK4z2-91" vertex="1">
          <mxGeometry x="60" width="230" height="30" as="geometry">
            <mxRectangle width="230" height="30" as="alternateBounds" />
          </mxGeometry>
        </mxCell>
        <mxCell id="UtrABaLbU96Mtq_oK4z2-94" value="" style="shape=tableRow;horizontal=0;startSize=0;swimlaneHead=0;swimlaneBody=0;fillColor=none;collapsible=0;dropTarget=0;points=[[0,0.5],[1,0.5]];portConstraint=eastwest;top=0;left=0;right=0;bottom=0;html=1;" parent="UtrABaLbU96Mtq_oK4z2-84" vertex="1">
          <mxGeometry y="120" width="290" height="30" as="geometry" />
        </mxCell>
        <mxCell id="UtrABaLbU96Mtq_oK4z2-95" value="" style="shape=partialRectangle;connectable=0;fillColor=none;top=0;left=0;bottom=0;right=0;editable=1;overflow=hidden;html=1;whiteSpace=wrap;" parent="UtrABaLbU96Mtq_oK4z2-94" vertex="1">
          <mxGeometry width="60" height="30" as="geometry">
            <mxRectangle width="60" height="30" as="alternateBounds" />
          </mxGeometry>
        </mxCell>
        <mxCell id="UtrABaLbU96Mtq_oK4z2-96" value="" style="shape=partialRectangle;connectable=0;fillColor=none;top=0;left=0;bottom=0;right=0;align=left;spacingLeft=6;overflow=hidden;html=1;whiteSpace=wrap;" parent="UtrABaLbU96Mtq_oK4z2-94" vertex="1">
          <mxGeometry x="60" width="230" height="30" as="geometry">
            <mxRectangle width="230" height="30" as="alternateBounds" />
          </mxGeometry>
        </mxCell>
        <mxCell id="UtrABaLbU96Mtq_oK4z2-97" value="&lt;font style=&quot;font-size: 8px;&quot;&gt;Дисциплина 2&lt;/font&gt;" style="shape=partialRectangle;connectable=0;fillColor=none;top=0;left=0;bottom=0;right=0;fontStyle=1;overflow=hidden;html=1;whiteSpace=wrap;align=center;" parent="1" vertex="1">
          <mxGeometry x="590" y="170" width="60" height="50" as="geometry">
            <mxRectangle width="60" height="30" as="alternateBounds" />
          </mxGeometry>
        </mxCell>
        <mxCell id="UtrABaLbU96Mtq_oK4z2-98" value="" style="shape=partialRectangle;connectable=0;fillColor=none;top=0;left=0;bottom=0;right=0;align=left;spacingLeft=6;fontStyle=5;overflow=hidden;html=1;whiteSpace=wrap;" parent="1" vertex="1">
          <mxGeometry x="650" y="180" width="230" height="30" as="geometry">
            <mxRectangle width="230" height="30" as="alternateBounds" />
          </mxGeometry>
        </mxCell>
        <mxCell id="NzfTSA1hqwJ1rz7dSjbP-83" value="" style="edgeStyle=orthogonalEdgeStyle;rounded=0;orthogonalLoop=1;jettySize=auto;html=1;entryX=0.5;entryY=0;entryDx=0;entryDy=0;" parent="1" source="UtrABaLbU96Mtq_oK4z2-100" target="NzfTSA1hqwJ1rz7dSjbP-39" edge="1">
          <mxGeometry relative="1" as="geometry">
            <mxPoint x="940" y="165" as="targetPoint" />
          </mxGeometry>
        </mxCell>
        <mxCell id="UtrABaLbU96Mtq_oK4z2-100" value="&lt;font style=&quot;font-size: 6px;&quot;&gt;Детализировать&lt;/font&gt;" style="shape=ext;margin=3;double=1;whiteSpace=wrap;html=1;align=center;strokeColor=#f20202;" parent="1" vertex="1">
          <mxGeometry x="810" y="155" width="60" height="20" as="geometry" />
        </mxCell>
        <mxCell id="UtrABaLbU96Mtq_oK4z2-104" value="" style="endArrow=classic;html=1;rounded=0;exitX=0;exitY=0;exitDx=40.71428571428579;exitDy=0;exitPerimeter=0;" parent="1" source="UtrABaLbU96Mtq_oK4z2-70" edge="1">
          <mxGeometry width="50" height="50" relative="1" as="geometry">
            <mxPoint x="520" y="110" as="sourcePoint" />
            <mxPoint x="440" y="110" as="targetPoint" />
          </mxGeometry>
        </mxCell>
        <mxCell id="UtrABaLbU96Mtq_oK4z2-105" value="&lt;font style=&quot;font-size: 8px;&quot;&gt;2. Возвращает на главную страницу&lt;/font&gt;" style="text;html=1;align=center;verticalAlign=middle;resizable=0;points=[];autosize=1;strokeColor=none;fillColor=none;" parent="1" vertex="1">
          <mxGeometry x="435" y="100" width="160" height="30" as="geometry" />
        </mxCell>
        <mxCell id="UtrABaLbU96Mtq_oK4z2-106" style="edgeStyle=orthogonalEdgeStyle;rounded=0;orthogonalLoop=1;jettySize=auto;html=1;" parent="1" source="UtrABaLbU96Mtq_oK4z2-52" edge="1" target="UtrABaLbU96Mtq_oK4z2-69">
          <mxGeometry relative="1" as="geometry">
            <mxPoint x="590" y="250" as="targetPoint" />
            <Array as="points" />
          </mxGeometry>
        </mxCell>
        <mxCell id="b3dP0lmcflKQwwTsM0hy-5" value="1" style="edgeLabel;html=1;align=center;verticalAlign=middle;resizable=0;points=[];" vertex="1" connectable="0" parent="UtrABaLbU96Mtq_oK4z2-106">
          <mxGeometry x="0.5626" y="1" relative="1" as="geometry">
            <mxPoint as="offset" />
          </mxGeometry>
        </mxCell>
        <mxCell id="UtrABaLbU96Mtq_oK4z2-114" value="&lt;font style=&quot;font-size: 11px;&quot;&gt;Добавить задачу&lt;/font&gt;" style="rounded=1;whiteSpace=wrap;html=1;" parent="1" vertex="1">
          <mxGeometry x="660" y="260" width="140" height="20" as="geometry" />
        </mxCell>
        <UserObject label="&lt;u&gt;Подготовка к семинару&lt;/u&gt;" placeholders="1" name="Variable" id="UtrABaLbU96Mtq_oK4z2-142">
          <mxCell style="text;html=1;strokeColor=none;fillColor=none;align=center;verticalAlign=middle;whiteSpace=wrap;overflow=hidden;" parent="1" vertex="1">
            <mxGeometry x="592.5" y="340" width="230" height="20" as="geometry" />
          </mxCell>
        </UserObject>
        <mxCell id="NzfTSA1hqwJ1rz7dSjbP-2" value="&lt;ol style=&quot;font-size: 10px;&quot;&gt;&lt;li&gt;Повторить материалы лекции&lt;/li&gt;&lt;li&gt;Решить задачи 1-5&lt;/li&gt;&lt;li&gt;Составить вопросы про теме&lt;/li&gt;&lt;/ol&gt;" style="text;strokeColor=none;fillColor=none;html=1;whiteSpace=wrap;verticalAlign=middle;overflow=hidden;" parent="1" vertex="1">
          <mxGeometry x="580" y="350" width="235" height="90" as="geometry" />
        </mxCell>
        <mxCell id="NzfTSA1hqwJ1rz7dSjbP-6" value="" style="verticalLabelPosition=bottom;verticalAlign=top;html=1;shape=mxgraph.basic.tick;fillColor=#009900;" parent="1" vertex="1">
          <mxGeometry x="625.8" y="345" width="10" height="10" as="geometry" />
        </mxCell>
        <mxCell id="NzfTSA1hqwJ1rz7dSjbP-60" style="edgeStyle=orthogonalEdgeStyle;rounded=0;orthogonalLoop=1;jettySize=auto;html=1;" parent="1" source="NzfTSA1hqwJ1rz7dSjbP-12" target="NzfTSA1hqwJ1rz7dSjbP-59" edge="1">
          <mxGeometry relative="1" as="geometry">
            <Array as="points">
              <mxPoint x="673" y="300" />
              <mxPoint x="255" y="300" />
            </Array>
          </mxGeometry>
        </mxCell>
        <mxCell id="b3dP0lmcflKQwwTsM0hy-7" value="3" style="edgeLabel;html=1;align=center;verticalAlign=middle;resizable=0;points=[];" vertex="1" connectable="0" parent="NzfTSA1hqwJ1rz7dSjbP-60">
          <mxGeometry x="0.1195" y="3" relative="1" as="geometry">
            <mxPoint as="offset" />
          </mxGeometry>
        </mxCell>
        <mxCell id="NzfTSA1hqwJ1rz7dSjbP-12" value="" style="shape=cross;whiteSpace=wrap;html=1;fillStyle=solid;fillColor=#009900;" parent="1" vertex="1">
          <mxGeometry x="666.25" y="265" width="13.75" height="10" as="geometry" />
        </mxCell>
        <mxCell id="NzfTSA1hqwJ1rz7dSjbP-14" value="&lt;font style=&quot;font-size: 6px;&quot;&gt;Детализировать&lt;/font&gt;" style="shape=ext;margin=3;double=1;whiteSpace=wrap;html=1;align=center;strokeColor=#000000;" parent="1" vertex="1">
          <mxGeometry x="810" y="210" width="62.5" height="20" as="geometry" />
        </mxCell>
        <mxCell id="NzfTSA1hqwJ1rz7dSjbP-20" style="edgeStyle=orthogonalEdgeStyle;rounded=0;orthogonalLoop=1;jettySize=auto;html=1;entryX=0.188;entryY=0.989;entryDx=0;entryDy=0;entryPerimeter=0;" parent="1" source="NzfTSA1hqwJ1rz7dSjbP-19" target="UtrABaLbU96Mtq_oK4z2-69" edge="1">
          <mxGeometry relative="1" as="geometry">
            <mxPoint x="470" y="180" as="targetPoint" />
          </mxGeometry>
        </mxCell>
        <mxCell id="NzfTSA1hqwJ1rz7dSjbP-19" value="&lt;div style=&quot;&quot;&gt;&lt;span style=&quot;font-size: 7px; background-color: initial;&quot;&gt;к списку&lt;/span&gt;&lt;/div&gt;" style="shape=singleArrow;direction=west;whiteSpace=wrap;html=1;align=center;arrowWidth=0.6428571428571374;arrowSize=0.18571428571428408;" parent="1" vertex="1">
          <mxGeometry x="525" y="335" width="50" height="20" as="geometry" />
        </mxCell>
        <mxCell id="NzfTSA1hqwJ1rz7dSjbP-28" value="" style="group" parent="1" vertex="1" connectable="0">
          <mxGeometry x="604.21" y="215" width="31.589999999999918" height="10" as="geometry" />
        </mxCell>
        <mxCell id="NzfTSA1hqwJ1rz7dSjbP-22" value="" style="verticalLabelPosition=bottom;verticalAlign=top;html=1;shape=mxgraph.basic.star;fillColor=#FFFF00;" parent="NzfTSA1hqwJ1rz7dSjbP-28" vertex="1">
          <mxGeometry width="10.53" height="10" as="geometry" />
        </mxCell>
        <mxCell id="NzfTSA1hqwJ1rz7dSjbP-23" value="" style="verticalLabelPosition=bottom;verticalAlign=top;html=1;shape=mxgraph.basic.star;fillColor=#FFFF00;" parent="NzfTSA1hqwJ1rz7dSjbP-28" vertex="1">
          <mxGeometry x="10.53" width="10.53" height="10" as="geometry" />
        </mxCell>
        <mxCell id="NzfTSA1hqwJ1rz7dSjbP-24" value="" style="verticalLabelPosition=bottom;verticalAlign=top;html=1;shape=mxgraph.basic.star;fillColor=#FFFFFF;" parent="NzfTSA1hqwJ1rz7dSjbP-28" vertex="1">
          <mxGeometry x="21.059999999999945" width="10.53" height="10" as="geometry" />
        </mxCell>
        <mxCell id="NzfTSA1hqwJ1rz7dSjbP-30" value="" style="group" parent="1" vertex="1" connectable="0">
          <mxGeometry x="604.21" y="155" width="31.589999999999918" height="10" as="geometry" />
        </mxCell>
        <mxCell id="NzfTSA1hqwJ1rz7dSjbP-25" value="" style="verticalLabelPosition=bottom;verticalAlign=top;html=1;shape=mxgraph.basic.star;fillColor=#FFFF00;" parent="NzfTSA1hqwJ1rz7dSjbP-30" vertex="1">
          <mxGeometry width="10.53" height="10" as="geometry" />
        </mxCell>
        <mxCell id="NzfTSA1hqwJ1rz7dSjbP-26" value="" style="verticalLabelPosition=bottom;verticalAlign=top;html=1;shape=mxgraph.basic.star;fillColor=#FFFF00;" parent="NzfTSA1hqwJ1rz7dSjbP-30" vertex="1">
          <mxGeometry x="10.529999999999973" width="10.53" height="10" as="geometry" />
        </mxCell>
        <mxCell id="NzfTSA1hqwJ1rz7dSjbP-27" value="" style="verticalLabelPosition=bottom;verticalAlign=top;html=1;shape=mxgraph.basic.star;fillColor=#FFFF33;" parent="NzfTSA1hqwJ1rz7dSjbP-30" vertex="1">
          <mxGeometry x="21.059999999999945" width="10.53" height="10" as="geometry" />
        </mxCell>
        <mxCell id="NzfTSA1hqwJ1rz7dSjbP-31" value="" style="group" parent="1" vertex="1" connectable="0">
          <mxGeometry x="590" y="340" width="31.589999999999918" height="10" as="geometry" />
        </mxCell>
        <mxCell id="NzfTSA1hqwJ1rz7dSjbP-32" value="" style="verticalLabelPosition=bottom;verticalAlign=top;html=1;shape=mxgraph.basic.star;fillColor=#FFFF00;" parent="NzfTSA1hqwJ1rz7dSjbP-31" vertex="1">
          <mxGeometry width="10.53" height="10" as="geometry" />
        </mxCell>
        <mxCell id="NzfTSA1hqwJ1rz7dSjbP-33" value="" style="verticalLabelPosition=bottom;verticalAlign=top;html=1;shape=mxgraph.basic.star;fillColor=#FFFF00;" parent="NzfTSA1hqwJ1rz7dSjbP-31" vertex="1">
          <mxGeometry x="10.53" width="10.53" height="10" as="geometry" />
        </mxCell>
        <mxCell id="NzfTSA1hqwJ1rz7dSjbP-34" value="" style="verticalLabelPosition=bottom;verticalAlign=top;html=1;shape=mxgraph.basic.star;fillColor=#FFFF00;" parent="NzfTSA1hqwJ1rz7dSjbP-31" vertex="1">
          <mxGeometry x="21.059999999999945" width="10.53" height="10" as="geometry" />
        </mxCell>
        <mxCell id="NzfTSA1hqwJ1rz7dSjbP-37" style="edgeStyle=orthogonalEdgeStyle;rounded=0;orthogonalLoop=1;jettySize=auto;html=1;" parent="1" edge="1">
          <mxGeometry relative="1" as="geometry">
            <mxPoint x="590" y="360.0000000000001" as="targetPoint" />
            <Array as="points">
              <mxPoint x="560" y="380" />
              <mxPoint x="590" y="380" />
            </Array>
            <mxPoint x="560" y="470" as="sourcePoint" />
          </mxGeometry>
        </mxCell>
        <mxCell id="NzfTSA1hqwJ1rz7dSjbP-35" value="&lt;font style=&quot;font-size: 9px;&quot;&gt;Задаче можно задать приоритет от меньшего к наивысшему&lt;/font&gt;" style="text;html=1;whiteSpace=wrap;overflow=hidden;rounded=0;" parent="1" vertex="1">
          <mxGeometry x="505" y="460" width="150" height="50" as="geometry" />
        </mxCell>
        <mxCell id="NzfTSA1hqwJ1rz7dSjbP-39" value="&lt;font style=&quot;font-size: 9px;&quot;&gt;5. Детализирует задачу себе студент &lt;b&gt;самостоятельно&lt;/b&gt;&lt;br&gt;&lt;/font&gt;" style="text;html=1;whiteSpace=wrap;overflow=hidden;rounded=0;" parent="1" vertex="1">
          <mxGeometry x="910" y="260" width="150" height="40" as="geometry" />
        </mxCell>
        <mxCell id="NzfTSA1hqwJ1rz7dSjbP-57" style="edgeStyle=orthogonalEdgeStyle;rounded=0;orthogonalLoop=1;jettySize=auto;html=1;" parent="1" source="NzfTSA1hqwJ1rz7dSjbP-56" target="NzfTSA1hqwJ1rz7dSjbP-2" edge="1">
          <mxGeometry relative="1" as="geometry" />
        </mxCell>
        <mxCell id="NzfTSA1hqwJ1rz7dSjbP-56" value="&lt;font style=&quot;font-size: 9px;&quot;&gt;Детализация задачи представляет собой обычную TextArea&lt;/font&gt;" style="text;html=1;whiteSpace=wrap;overflow=hidden;rounded=0;" parent="1" vertex="1">
          <mxGeometry x="896.25" y="380" width="143.75" height="50" as="geometry" />
        </mxCell>
        <mxCell id="NzfTSA1hqwJ1rz7dSjbP-59" value="" style="rounded=0;whiteSpace=wrap;html=1;" parent="1" vertex="1">
          <mxGeometry x="70" y="330" width="370" height="190" as="geometry" />
        </mxCell>
        <mxCell id="NzfTSA1hqwJ1rz7dSjbP-62" value="&lt;font style=&quot;font-size: 12px;&quot;&gt;&lt;i&gt;Подготовка к семинару&lt;/i&gt;&lt;/font&gt;" style="text;html=1;whiteSpace=wrap;overflow=hidden;rounded=0;" parent="1" vertex="1">
          <mxGeometry x="655" y="125" width="150" height="40" as="geometry" />
        </mxCell>
        <mxCell id="NzfTSA1hqwJ1rz7dSjbP-63" value="" style="group" parent="1" vertex="1" connectable="0">
          <mxGeometry x="655" y="210" width="150" height="30" as="geometry" />
        </mxCell>
        <mxCell id="NzfTSA1hqwJ1rz7dSjbP-67" value="&lt;font style=&quot;font-size: 12px;&quot;&gt;&lt;i&gt;Повторить материалы лекции&lt;/i&gt;&lt;/font&gt;" style="text;html=1;whiteSpace=wrap;overflow=hidden;rounded=0;" parent="NzfTSA1hqwJ1rz7dSjbP-63" vertex="1">
          <mxGeometry y="-30" width="150" height="40" as="geometry" />
        </mxCell>
        <UserObject label="%date{ddd mmm dd yyyy HH:MM:ss}%" placeholders="1" id="NzfTSA1hqwJ1rz7dSjbP-50">
          <mxCell style="text;html=1;strokeColor=none;fillColor=none;align=center;verticalAlign=middle;whiteSpace=wrap;overflow=hidden;" parent="NzfTSA1hqwJ1rz7dSjbP-63" vertex="1">
            <mxGeometry x="11.25" y="10" width="100" height="20" as="geometry" />
          </mxCell>
        </UserObject>
        <mxCell id="NzfTSA1hqwJ1rz7dSjbP-64" value="" style="group" parent="1" vertex="1" connectable="0">
          <mxGeometry x="650" y="160" width="115" height="20" as="geometry" />
        </mxCell>
        <mxCell id="NzfTSA1hqwJ1rz7dSjbP-65" value="" style="shape=image;verticalLabelPosition=bottom;labelBackgroundColor=default;verticalAlign=top;aspect=fixed;imageAspect=0;image=data:image/png,iVBORw0KGgoAAAANSUhEUgAAAEAAAABACAYAAACqaXHeAAAAAXNSR0IArs4c6QAAAERlWElmTU0AKgAAAAgAAYdpAAQAAAABAAAAGgAAAAAAA6ABAAMAAAABAAEAAKACAAQAAAABAAAAQKADAAQAAAABAAAAQAAAAABGUUKwAAAA6UlEQVR4Ae2ZwQqFMAwEVfz/X9ajkFtg27DuvJtQ4nYyqTx6HPwgAAEIQAACEEglcG7c+NN815ZsVzPU75YD4HctbW7obq5XLq8z3j0jJFkYAQlG4yIYYNw8SXQMkGA0LoIBxs2TRMcACUbjIhhg3DxJdAyQYDQuggHGzZNExwAJRuMiGGDcPEl0DJBgNC4Sb8DkvcDIPUCVNd4AAFQleIYABCCQRKDe0a/ce/e7vyUbn8GVLXeoHW/A5H+BOuPdM0IiWLwBAJB4ZFxk8gwYmfnaK0agEkl7jjcgreHsFwIQgAAEIACBj8ALCDYGXSrchB0AAAAASUVORK5CYII=;" parent="NzfTSA1hqwJ1rz7dSjbP-64" vertex="1">
          <mxGeometry width="20" height="20" as="geometry" />
        </mxCell>
        <UserObject label="%date{ddd mmm dd yyyy HH:MM:ss}%" placeholders="1" id="NzfTSA1hqwJ1rz7dSjbP-66">
          <mxCell style="text;html=1;strokeColor=none;fillColor=none;align=center;verticalAlign=middle;whiteSpace=wrap;overflow=hidden;" parent="NzfTSA1hqwJ1rz7dSjbP-64" vertex="1">
            <mxGeometry x="15" width="100" height="20" as="geometry" />
          </mxCell>
        </UserObject>
        <mxCell id="NzfTSA1hqwJ1rz7dSjbP-49" value="" style="shape=image;verticalLabelPosition=bottom;labelBackgroundColor=default;verticalAlign=top;aspect=fixed;imageAspect=0;image=data:image/png,iVBORw0KGgoAAAANSUhEUgAAAEAAAABACAYAAACqaXHeAAAAAXNSR0IArs4c6QAAAERlWElmTU0AKgAAAAgAAYdpAAQAAAABAAAAGgAAAAAAA6ABAAMAAAABAAEAAKACAAQAAAABAAAAQKADAAQAAAABAAAAQAAAAABGUUKwAAAA6UlEQVR4Ae2ZwQqFMAwEVfz/X9ajkFtg27DuvJtQ4nYyqTx6HPwgAAEIQAACEEglcG7c+NN815ZsVzPU75YD4HctbW7obq5XLq8z3j0jJFkYAQlG4yIYYNw8SXQMkGA0LoIBxs2TRMcACUbjIhhg3DxJdAyQYDQuggHGzZNExwAJRuMiGGDcPEl0DJBgNC4Sb8DkvcDIPUCVNd4AAFQleIYABCCQRKDe0a/ce/e7vyUbn8GVLXeoHW/A5H+BOuPdM0IiWLwBAJB4ZFxk8gwYmfnaK0agEkl7jjcgreHsFwIQgAAEIACBj8ALCDYGXSrchB0AAAAASUVORK5CYII=;" parent="1" vertex="1">
          <mxGeometry x="655" y="220" width="20" height="20" as="geometry" />
        </mxCell>
        <mxCell id="NzfTSA1hqwJ1rz7dSjbP-86" style="edgeStyle=orthogonalEdgeStyle;rounded=0;orthogonalLoop=1;jettySize=auto;html=1;entryX=0.919;entryY=0;entryDx=0;entryDy=0;entryPerimeter=0;" parent="1" source="NzfTSA1hqwJ1rz7dSjbP-39" target="UtrABaLbU96Mtq_oK4z2-115" edge="1">
          <mxGeometry relative="1" as="geometry" />
        </mxCell>
        <mxCell id="NzfTSA1hqwJ1rz7dSjbP-90" value="&lt;font style=&quot;font-size: 15px;&quot;&gt;Меню создания задачи&lt;/font&gt;" style="text;strokeColor=none;fillColor=none;html=1;fontSize=24;fontStyle=1;verticalAlign=middle;align=center;" parent="1" vertex="1">
          <mxGeometry x="205" y="320" width="100" height="40" as="geometry" />
        </mxCell>
        <mxCell id="NzfTSA1hqwJ1rz7dSjbP-91" value="&lt;font style=&quot;font-size: 9px;&quot;&gt;Название&lt;/font&gt;" style="text;html=1;whiteSpace=wrap;overflow=hidden;rounded=0;" parent="1" vertex="1">
          <mxGeometry x="80" y="357" width="50" height="33" as="geometry" />
        </mxCell>
        <mxCell id="NzfTSA1hqwJ1rz7dSjbP-92" value="&lt;font style=&quot;font-size: 9px;&quot;&gt;Дисциплина&lt;/font&gt;" style="text;html=1;whiteSpace=wrap;overflow=hidden;rounded=0;" parent="1" vertex="1">
          <mxGeometry x="80" y="390" width="60" height="33" as="geometry" />
        </mxCell>
        <mxCell id="NzfTSA1hqwJ1rz7dSjbP-93" value="&lt;font style=&quot;font-size: 9px;&quot;&gt;Дедлайн&lt;/font&gt;" style="text;html=1;whiteSpace=wrap;overflow=hidden;rounded=0;" parent="1" vertex="1">
          <mxGeometry x="270" y="365" width="60" height="33" as="geometry" />
        </mxCell>
        <mxCell id="NzfTSA1hqwJ1rz7dSjbP-94" value="&lt;font style=&quot;font-size: 9px;&quot;&gt;Приоритет&lt;/font&gt;" style="text;html=1;whiteSpace=wrap;overflow=hidden;rounded=0;" parent="1" vertex="1">
          <mxGeometry x="270" y="390" width="60" height="33" as="geometry" />
        </mxCell>
        <mxCell id="NzfTSA1hqwJ1rz7dSjbP-95" value="&lt;font style=&quot;font-size: 9px;&quot;&gt;Описание&lt;/font&gt;" style="text;html=1;whiteSpace=wrap;overflow=hidden;rounded=0;" parent="1" vertex="1">
          <mxGeometry x="270" y="417" width="60" height="33" as="geometry" />
        </mxCell>
        <mxCell id="NzfTSA1hqwJ1rz7dSjbP-96" value="&lt;font style=&quot;font-size: 9px;&quot;&gt;&lt;i&gt;подробное описание задачи текстом&lt;/i&gt;&lt;/font&gt;" style="rounded=1;whiteSpace=wrap;html=1;" parent="1" vertex="1">
          <mxGeometry x="270" y="440" width="150" height="40" as="geometry" />
        </mxCell>
        <mxCell id="NzfTSA1hqwJ1rz7dSjbP-98" value="" style="group" parent="1" vertex="1" connectable="0">
          <mxGeometry x="330.00000000000006" y="400" width="31.589999999999918" height="10" as="geometry" />
        </mxCell>
        <mxCell id="NzfTSA1hqwJ1rz7dSjbP-99" value="" style="verticalLabelPosition=bottom;verticalAlign=top;html=1;shape=mxgraph.basic.star;fillColor=#FFFF00;" parent="NzfTSA1hqwJ1rz7dSjbP-98" vertex="1">
          <mxGeometry width="10.53" height="10" as="geometry" />
        </mxCell>
        <mxCell id="NzfTSA1hqwJ1rz7dSjbP-100" value="" style="verticalLabelPosition=bottom;verticalAlign=top;html=1;shape=mxgraph.basic.star;fillColor=#FFFF00;" parent="NzfTSA1hqwJ1rz7dSjbP-98" vertex="1">
          <mxGeometry x="10.529999999999973" width="10.53" height="10" as="geometry" />
        </mxCell>
        <mxCell id="NzfTSA1hqwJ1rz7dSjbP-101" value="" style="verticalLabelPosition=bottom;verticalAlign=top;html=1;shape=mxgraph.basic.star;fillColor=#FFFF33;" parent="NzfTSA1hqwJ1rz7dSjbP-98" vertex="1">
          <mxGeometry x="21.059999999999945" width="10.53" height="10" as="geometry" />
        </mxCell>
        <mxCell id="NzfTSA1hqwJ1rz7dSjbP-102" value="&lt;font style=&quot;font-size: 8px;&quot;&gt;дисциплины&lt;/font&gt;" style="swimlane;fontStyle=0;childLayout=stackLayout;horizontal=1;startSize=20;fillColor=none;horizontalStack=0;resizeParent=1;resizeParentMax=0;resizeLast=0;collapsible=1;marginBottom=0;html=1;" parent="1" vertex="1">
          <mxGeometry x="140" y="400" width="110" height="80" as="geometry" />
        </mxCell>
        <mxCell id="NzfTSA1hqwJ1rz7dSjbP-103" value="&lt;font style=&quot;font-size: 6px;&quot;&gt;дисциплина 1&lt;/font&gt;" style="text;strokeColor=none;fillColor=none;align=left;verticalAlign=top;spacingLeft=4;spacingRight=4;overflow=hidden;rotatable=0;points=[[0,0.5],[1,0.5]];portConstraint=eastwest;whiteSpace=wrap;html=1;" parent="NzfTSA1hqwJ1rz7dSjbP-102" vertex="1">
          <mxGeometry y="20" width="110" height="20" as="geometry" />
        </mxCell>
        <mxCell id="NzfTSA1hqwJ1rz7dSjbP-104" value="&lt;font style=&quot;font-size: 6px;&quot;&gt;дисциплина 2&lt;/font&gt;" style="text;strokeColor=none;fillColor=none;align=left;verticalAlign=top;spacingLeft=4;spacingRight=4;overflow=hidden;rotatable=0;points=[[0,0.5],[1,0.5]];portConstraint=eastwest;whiteSpace=wrap;html=1;" parent="NzfTSA1hqwJ1rz7dSjbP-102" vertex="1">
          <mxGeometry y="40" width="110" height="20" as="geometry" />
        </mxCell>
        <mxCell id="NzfTSA1hqwJ1rz7dSjbP-105" value="&lt;font style=&quot;font-size: 6px;&quot;&gt;дисциплина 3&lt;/font&gt;" style="text;strokeColor=none;fillColor=none;align=left;verticalAlign=top;spacingLeft=4;spacingRight=4;overflow=hidden;rotatable=0;points=[[0,0.5],[1,0.5]];portConstraint=eastwest;whiteSpace=wrap;html=1;" parent="NzfTSA1hqwJ1rz7dSjbP-102" vertex="1">
          <mxGeometry y="60" width="110" height="20" as="geometry" />
        </mxCell>
        <mxCell id="NzfTSA1hqwJ1rz7dSjbP-106" value="&lt;font style=&quot;font-size: 8px;&quot;&gt;DD.MM.YYYY&lt;/font&gt;" style="rounded=1;whiteSpace=wrap;html=1;" parent="1" vertex="1">
          <mxGeometry x="320" y="368" width="100" height="20" as="geometry" />
        </mxCell>
        <mxCell id="NzfTSA1hqwJ1rz7dSjbP-109" value="&lt;font style=&quot;font-size: 8px;&quot;&gt;текстовое поле наименование задачи&lt;/font&gt;" style="rounded=1;whiteSpace=wrap;html=1;" parent="1" vertex="1">
          <mxGeometry x="130" y="358.5" width="130" height="30" as="geometry" />
        </mxCell>
        <mxCell id="b3dP0lmcflKQwwTsM0hy-1" value="" style="group" vertex="1" connectable="0" parent="1">
          <mxGeometry x="770" y="340" width="115" height="20" as="geometry" />
        </mxCell>
        <mxCell id="b3dP0lmcflKQwwTsM0hy-2" value="" style="shape=image;verticalLabelPosition=bottom;labelBackgroundColor=default;verticalAlign=top;aspect=fixed;imageAspect=0;image=data:image/png,iVBORw0KGgoAAAANSUhEUgAAAEAAAABACAYAAACqaXHeAAAAAXNSR0IArs4c6QAAAERlWElmTU0AKgAAAAgAAYdpAAQAAAABAAAAGgAAAAAAA6ABAAMAAAABAAEAAKACAAQAAAABAAAAQKADAAQAAAABAAAAQAAAAABGUUKwAAAA6UlEQVR4Ae2ZwQqFMAwEVfz/X9ajkFtg27DuvJtQ4nYyqTx6HPwgAAEIQAACEEglcG7c+NN815ZsVzPU75YD4HctbW7obq5XLq8z3j0jJFkYAQlG4yIYYNw8SXQMkGA0LoIBxs2TRMcACUbjIhhg3DxJdAyQYDQuggHGzZNExwAJRuMiGGDcPEl0DJBgNC4Sb8DkvcDIPUCVNd4AAFQleIYABCCQRKDe0a/ce/e7vyUbn8GVLXeoHW/A5H+BOuPdM0IiWLwBAJB4ZFxk8gwYmfnaK0agEkl7jjcgreHsFwIQgAAEIACBj8ALCDYGXSrchB0AAAAASUVORK5CYII=;" vertex="1" parent="b3dP0lmcflKQwwTsM0hy-1">
          <mxGeometry width="20" height="20" as="geometry" />
        </mxCell>
        <UserObject label="%date{ddd mmm dd yyyy HH:MM:ss}%" placeholders="1" id="b3dP0lmcflKQwwTsM0hy-3">
          <mxCell style="text;html=1;strokeColor=none;fillColor=none;align=center;verticalAlign=middle;whiteSpace=wrap;overflow=hidden;" vertex="1" parent="b3dP0lmcflKQwwTsM0hy-1">
            <mxGeometry x="15" width="100" height="20" as="geometry" />
          </mxCell>
        </UserObject>
        <mxCell id="b3dP0lmcflKQwwTsM0hy-6" style="edgeStyle=orthogonalEdgeStyle;rounded=0;orthogonalLoop=1;jettySize=auto;html=1;entryX=0;entryY=0.619;entryDx=0;entryDy=0;entryPerimeter=0;" edge="1" parent="1" source="b3dP0lmcflKQwwTsM0hy-4" target="UtrABaLbU96Mtq_oK4z2-69">
          <mxGeometry relative="1" as="geometry">
            <mxPoint x="480" y="210" as="targetPoint" />
            <Array as="points">
              <mxPoint x="470" y="501" />
              <mxPoint x="470" y="210" />
            </Array>
          </mxGeometry>
        </mxCell>
        <mxCell id="b3dP0lmcflKQwwTsM0hy-8" value="4" style="edgeLabel;html=1;align=center;verticalAlign=middle;resizable=0;points=[];" vertex="1" connectable="0" parent="b3dP0lmcflKQwwTsM0hy-6">
          <mxGeometry x="0.2552" y="-2" relative="1" as="geometry">
            <mxPoint as="offset" />
          </mxGeometry>
        </mxCell>
        <mxCell id="b3dP0lmcflKQwwTsM0hy-4" value="Завершить создание задачи" style="rounded=1;whiteSpace=wrap;html=1;fillColor=#d5e8d4;strokeColor=#82b366;" vertex="1" parent="1">
          <mxGeometry x="170" y="490" width="180" height="23" as="geometry" />
        </mxCell>
        <mxCell id="b3dP0lmcflKQwwTsM0hy-10" style="edgeStyle=orthogonalEdgeStyle;rounded=0;orthogonalLoop=1;jettySize=auto;html=1;" edge="1" parent="1" source="b3dP0lmcflKQwwTsM0hy-9">
          <mxGeometry relative="1" as="geometry">
            <mxPoint x="470" y="345" as="targetPoint" />
          </mxGeometry>
        </mxCell>
        <mxCell id="b3dP0lmcflKQwwTsM0hy-9" value="&lt;font style=&quot;font-size: 6px;&quot;&gt;отменить создание&lt;/font&gt;" style="shape=singleArrow;whiteSpace=wrap;html=1;arrowWidth=0.5999999999999962;arrowSize=0.2364912280701742;" vertex="1" parent="1">
          <mxGeometry x="370" y="330" width="65" height="30" as="geometry" />
        </mxCell>
        <mxCell id="b3dP0lmcflKQwwTsM0hy-12" value="2" style="text;strokeColor=none;fillColor=none;html=1;fontSize=24;fontStyle=1;verticalAlign=middle;align=center;" vertex="1" parent="1">
          <mxGeometry x="479.99999999999994" y="70" width="100" height="40" as="geometry" />
        </mxCell>
        <mxCell id="b3dP0lmcflKQwwTsM0hy-13" value="3" style="text;strokeColor=none;fillColor=none;html=1;fontSize=24;fontStyle=1;verticalAlign=middle;align=center;" vertex="1" parent="1">
          <mxGeometry x="29.999999999999943" y="325" width="100" height="40" as="geometry" />
        </mxCell>
        <mxCell id="b3dP0lmcflKQwwTsM0hy-14" value="4" style="text;strokeColor=none;fillColor=none;html=1;fontSize=24;fontStyle=1;verticalAlign=middle;align=center;" vertex="1" parent="1">
          <mxGeometry x="479.99999999999994" y="345" width="100" height="40" as="geometry" />
        </mxCell>
        <mxCell id="b3dP0lmcflKQwwTsM0hy-15" value="&lt;font style=&quot;font-size: 10px;&quot;&gt;Завершить редактирование задачи&lt;/font&gt;" style="rounded=1;whiteSpace=wrap;html=1;fillColor=#d5e8d4;strokeColor=#82b366;" vertex="1" parent="1">
          <mxGeometry x="615" y="430" width="180" height="23" as="geometry" />
        </mxCell>
      </root>
    </mxGraphModel>
  </diagram>
</mxfile>
